{"accessors" : [{"bufferView" : 0, "byteOffset" : 0, "componentType" : 5123, "count" : 84, "type" : "SCALAR", "max" : [83], "min" : [0]}, {"bufferView" : 1, "byteOffset" : 0, "componentType" : 5126, "count" : 84, "type" : "VEC3", "max" : [1, 1, 1], "min" : [-1, -1, -1], "name" : "POSITION"}, {"bufferView" : 1, "byteOffset" : 12, "componentType" : 5126, "count" : 84, "type" : "VEC3", "max" : [0.997833251953125, 0.997833251953125, 1.0000044107437134], "min" : [-0.997833251953125, -0.997833251953125, -1.0000044107437134], "name" : "NORMAL"}, {"bufferView" : 1, "byteOffset" : 24, "componentType" : 5126, "count" : 84, "type" : "VEC2", "max" : [0.9845694303512573, -0.3527163565158844], "min" : [0.698818564414978, -0.9832642078399658], "name" : "TEXCOORD_0"}, {"bufferView" : 0, "byteOffset" : 168, "componentType" : 5123, "count" : 42129, "type" : "SCALAR", "max" : [42128], "min" : [0]}, {"bufferView" : 2, "byteOffset" : 0, "componentType" : 5126, "count" : 42129, "type" : "VEC3", "max" : [5.005935192108154, 5.145870685577393, 9.261144638061523], "min" : [-4.564135551452637, -6.203586578369141, -0.021961212158203125], "name" : "POSITION"}, {"bufferView" : 2, "byteOffset" : 12, "componentType" : 5126, "count" : 42129, "type" : "VEC3", "max" : [0.9999374747276306, 0.998568058013916, 0.9991755485534668], "min" : [-0.9997750520706177, -0.9989494681358337, -0.9644834399223328], "name" : "NORMAL"}, {"bufferView" : 2, "byteOffset" : 24, "componentType" : 5126, "count" : 42129, "type" : "VEC3", "max" : [1, 1, 1], "min" : [1, 1, 1], "name" : "COLOR_0"}, {"bufferView" : 2, "byteOffset" : 36, "componentType" : 5126, "count" : 42129, "type" : "VEC2", "max" : [0.7350167036056519, -0.34335440397262573], "min" : [0.6966214179992676, -0.4977670907974243], "name" : "TEXCOORD_0"}, {"bufferView" : 2, "byteOffset" : 44, "componentType" : 5126, "count" : 42129, "type" : "VEC2", "max" : [1, -0.6340060234069824], "min" : [0, -0.9996291399002075], "name" : "TEXCOORD_1"}, {"bufferView" : 0, "byteOffset" : 84428, "componentType" : 5123, "count" : 7560, "type" : "SCALAR", "max" : [7559], "min" : [0]}, {"bufferView" : 3, "byteOffset" : 0, "componentType" : 5126, "count" : 7560, "type" : "VEC3", "max" : [6.21440315246582, 6.43900728225708, 9.472278594970703], "min" : [-6.021955490112305, -7.452604293823242, 1.8083000183105469], "name" : "POSITION"}, {"bufferView" : 3, "byteOffset" : 12, "componentType" : 5126, "count" : 7560, "type" : "VEC3", "max" : [0.7975284457206726, 0.8358776569366455, 0.9999803304672241], "min" : [-0.8021168112754822, -0.8799101710319519, 0.3933955729007721], "name" : "NORMAL"}, {"bufferView" : 3, "byteOffset" : 24, "componentType" : 5126, "count" : 7560, "type" : "VEC3", "max" : [1, 1, 1], "min" : [1, 1, 1], "name" : "COLOR_0"}, {"bufferView" : 3, "byteOffset" : 36, "componentType" : 5126, "count" : 7560, "type" : "VEC2", "max" : [0.37072497606277466, -0.35284551978111267], "min" : [0.3217950463294983, -0.5128862261772156], "name" : "TEXCOORD_0"}, {"bufferView" : 3, "byteOffset" : 44, "componentType" : 5126, "count" : 7560, "type" : "VEC2", "max" : [1, -0.6138604879379272], "min" : [1, -0.9996291399002075], "name" : "TEXCOORD_1"}], "asset" : {"generator" : "Aspose.3D 22.10", "version" : "2.0"}, "buffers" : [{"uri" : "data:application/octet-stream;base64,", "byteLength" : 2686080}], "bufferViews" : [{"buffer" : 0, "byteOffset" : 0, "byteLength" : 99548, "target" : 34963}, {"buffer" : 0, "byteOffset" : 99552, "byteLength" : 2688, "byteStride" : 32, "target" : 34962}, {"buffer" : 0, "byteOffset" : 102244, "byteLength" : 2190708, "byteStride" : 52, "target" : 34962}, {"buffer" : 0, "byteOffset" : 2292956, "byteLength" : 393120, "byteStride" : 52, "target" : 34962}], "images" : [{"uri" : "A:\\2GAMEDEV\\2PROGETTI\\Sokoran\\assets\\palette.png"}, {"uri" : "A:\\2GAMEDEV\\2PROGETTI\\Sokoran\\assets\\palette.png"}, {"uri" : "A:\\2GAMEDEV\\2PROGETTI\\Sokoran\\assets\\palette.png"}], "materials" : [{"name" : "vaso", "pbrMetallicRoughness" : {"baseColorFactor" : [0.800000011920929, 0.800000011920929, 0.800000011920929, 1], "baseColorTexture" : {"index" : 0, "texCoord" : 0}, "metallicFactor" : 0, "roughnessFactor" : 0}, "emissiveFactor" : [0, 0, 0], "alphaMode" : "OPAQUE", "doubleSided" : false}, {"name" : "tronco", "pbrMetallicRoughness" : {"baseColorFactor" : [0.800000011920929, 0.800000011920929, 0.800000011920929, 1], "baseColorTexture" : {"index" : 1, "texCoord" : 0}, "metallicFactor" : 0, "roughnessFactor" : 0}, "emissiveFactor" : [0, 0, 0], "alphaMode" : "OPAQUE", "doubleSided" : false}, {"name" : "foglie", "pbrMetallicRoughness" : {"baseColorFactor" : [1, 1, 1, 1], "baseColorTexture" : {"index" : 2, "texCoord" : 0}, "metallicFactor" : 0, "roughnessFactor" : 0}, "emissiveFactor" : [0, 0, 0], "alphaMode" : "OPAQUE", "doubleSided" : false}], "meshes" : [{"primitives" : [{"attributes" : {"POSITION" : 1, "NORMAL" : 2, "TEXCOORD_0" : 3}, "indices" : 0, "material" : 0, "mode" : 4}], "name" : "Cube.004"}, {"primitives" : [{"attributes" : {"POSITION" : 5, "NORMAL" : 6, "COLOR_0" : 7, "TEXCOORD_0" : 8, "TEXCOORD_1" : 9}, "indices" : 4, "material" : 1, "mode" : 4}], "name" : "tronco"}, {"primitives" : [{"attributes" : {"POSITION" : 11, "NORMAL" : 12, "COLOR_0" : 13, "TEXCOORD_0" : 14, "TEXCOORD_1" : 15}, "indices" : 10, "material" : 2, "mode" : 4}], "name" : "foglie"}], "nodes" : [{"matrix" : [49.685272216796875, 0, 0, 0, 0, -8.094758313318598E-06, -49.685272216796214, 0, 0, 49.685272216796214, -8.094758313318598E-06, 0, 0, 149.68528747558594, -1.1920928955078125E-05, 1], "mesh" : 0, "name" : "Cube.001"}, {"matrix" : [1.0000001192092896, 0, 0, 0, 0, 1.0000001192092896, 0, 0, 0, 0, 1, 0, 5.551115123125783E-17, 5.551115123125783E-17, 0, 1], "mesh" : 2, "name" : "foglie"}, {"children" : [1], "matrix" : [22.059280395507812, 0, 0, 0, 0, -3.5977183545509553E-06, -22.08263778686494, 0, 0, 15.662613868713171, -2.5517636950614336E-06, 0, 6.236534844106245E-09, 177.3625946044922, -1.4967685757483196E-08, 1], "mesh" : 1, "name" : "tronco"}], "samplers" : [{"magFilter" : 9729, "minFilter" : 9729, "wrapS" : 10497, "wrapT" : 10497}, {"magFilter" : 9729, "minFilter" : 9729, "wrapS" : 10497, "wrapT" : 10497}, {"magFilter" : 9729, "minFilter" : 9729, "wrapS" : 10497, "wrapT" : 10497}], "scene" : 0, "scenes" : [{"nodes" : [0, 2]}], "textures" : [{"sampler" : 0, "source" : 0, "name" : "base_color_texture"}, {"sampler" : 1, "source" : 1, "name" : "base_color_texture"}, {"sampler" : 2, "source" : 2, "name" : "base_color_texture"}]}