{"accessors":[{"bufferView":0,"byteOffset":0,"componentType":5126,"count":24,"max":[1,1,1],"min":[-1,-1,-1],"normalized":false,"type":"VEC3"},{"bufferView":1,"byteOffset":0,"componentType":5126,"count":24,"max":[0.999969,0,-0.007936,1],"min":[0.999969,0,-0.007936,-1],"normalized":false,"type":"VEC4"},{"bufferView":2,"byteOffset":0,"componentType":5126,"count":24,"max":[1,1,1],"min":[-1,-1,-1],"normalized":false,"type":"VEC3"},{"bufferView":3,"byteOffset":0,"componentType":5126,"count":24,"max":[0.226807,0.243286],"min":[0.214478,0.002729],"normalized":false,"type":"VEC2"},{"bufferView":4,"byteOffset":0,"componentType":5125,"count":36,"max":[23],"min":[0],"normalized":false,"type":"SCALAR"},{"bufferView":5,"byteOffset":0,"componentType":5126,"count":24,"max":[1,3,1],"min":[-1,-1,-1],"normalized":false,"type":"VEC3"},{"bufferView":6,"byteOffset":0,"componentType":5126,"count":24,"max":[0.999969,0,-0.007936,1],"min":[0.999969,0,-0.007936,-1],"normalized":false,"type":"VEC4"},{"bufferView":7,"byteOffset":0,"componentType":5126,"count":24,"max":[1,1,1],"min":[-1,-1,-1],"normalized":false,"type":"VEC3"},{"bufferView":8,"byteOffset":0,"componentType":5126,"count":24,"max":[0.615234,0.245728],"min":[0.570801,0.001906],"normalized":false,"type":"VEC2"},{"bufferView":9,"byteOffset":0,"componentType":5125,"count":36,"max":[23],"min":[0],"normalized":false,"type":"SCALAR"}],"asset":{"generator":"Godot Engine v3.5.stable.official@991bb6ac74ac8c09d7683041b50a8ced3a2defb1","version":"2.0"},"bufferViews":[{"buffer":0,"byteLength":288,"byteOffset":0},{"buffer":0,"byteLength":384,"byteOffset":288},{"buffer":0,"byteLength":288,"byteOffset":672},{"buffer":0,"byteLength":192,"byteOffset":960},{"buffer":0,"byteLength":144,"byteOffset":1152},{"buffer":0,"byteLength":288,"byteOffset":1296},{"buffer":0,"byteLength":384,"byteOffset":1584},{"buffer":0,"byteLength":288,"byteOffset":1968},{"buffer":0,"byteLength":192,"byteOffset":2256},{"buffer":0,"byteLength":144,"byteOffset":2448}],"buffers":[{"byteLength":2592,"uri":"Tileset0.bin"}],"extensionsRequired":["KHR_texture_transform"],"extensionsUsed":["KHR_lights_punctual","KHR_texture_transform"],"images":[{"uri":"textures/Material_albedo.png"},{"uri":"textures/Material_albedo002.png"}],"materials":[{"doubleSided":true,"name":"Material","pbrMetallicRoughness":{"baseColorFactor":[1,1,1,1],"baseColorTexture":{"extensions":{"KHR_texture_transform":{"offset":[0,0],"scale":[1,0.9]}},"index":0},"metallicFactor":0,"roughnessFactor":1}},{"doubleSided":true,"name":"Material2","pbrMetallicRoughness":{"baseColorFactor":[1,1,1,1],"baseColorTexture":{"extensions":{"KHR_texture_transform":{"offset":[0,0],"scale":[1,1]}},"index":1},"metallicFactor":0,"roughnessFactor":1}}],"meshes":[{"extras":{"targetNames":[]},"primitives":[{"attributes":{"NORMAL":2,"POSITION":0,"TANGENT":1,"TEXCOORD_0":3},"indices":4,"material":0,"mode":4}]},{"extras":{"targetNames":[]},"primitives":[{"attributes":{"NORMAL":7,"POSITION":5,"TANGENT":6,"TEXCOORD_0":8},"indices":9,"material":1,"mode":4}]}],"nodes":[{"children":[1,4],"extensions":{},"name":"Tileset"},{"children":[2],"extensions":{},"mesh":0,"name":"Grass","scale":[0.95,1,0.95]},{"children":[3],"extensions":{},"name":"StaticBody"},{"extensions":{},"name":"CollisionShape"},{"children":[5],"extensions":{},"mesh":1,"name":"Obstacle","scale":[0.95,1,0.95],"translation":[0,0,-2]},{"children":[6],"extensions":{},"name":"StaticBody2"},{"extensions":{},"name":"CollisionShape2","translation":[0,1,0]}],"scene":0,"scenes":[{"nodes":[0]}],"textures":[{"source":0},{"source":1}]}